<?xml version="1.0" encoding="UTF-8" standalone="no"?>
<!-- Created with Inkscape (http://www.inkscape.org/) -->

<svg
   width="14.215189mm"
   height="7.4608874mm"
   viewBox="0 0 14.215189 7.4608874"
   version="1.1"
   id="svg2422"
   inkscape:version="1.3.2 (091e20e, 2023-11-25, custom)"
   sodipodi:docname="HighBeam_active.svg"
   xmlns:inkscape="http://www.inkscape.org/namespaces/inkscape"
   xmlns:sodipodi="http://sodipodi.sourceforge.net/DTD/sodipodi-0.dtd"
   xmlns:xlink="http://www.w3.org/1999/xlink"
   xmlns="http://www.w3.org/2000/svg"
   xmlns:svg="http://www.w3.org/2000/svg">
  <sodipodi:namedview
     id="namedview2424"
     pagecolor="#ffffff"
     bordercolor="#000000"
     borderopacity="0.25"
     inkscape:showpageshadow="2"
     inkscape:pageopacity="0.0"
     inkscape:pagecheckerboard="0"
     inkscape:deskcolor="#d1d1d1"
     inkscape:document-units="mm"
     showgrid="false"
     inkscape:zoom="8.4359983"
     inkscape:cx="18.966339"
     inkscape:cy="26.730683"
     inkscape:window-width="2048"
     inkscape:window-height="1089"
     inkscape:window-x="-8"
     inkscape:window-y="-8"
     inkscape:window-maximized="1"
     inkscape:current-layer="layer1" />
  <defs
     id="defs2419" />
  <g
     inkscape:label="Warstwa 1"
     inkscape:groupmode="layer"
     id="layer1"
     transform="translate(-59.236444,-100.2576)">
    <path
       style="fill:#002bff;fill-opacity:1;stroke-width:0.144393"
       d="m 64.37567,101.01555 c 0,-0.31618 -0.006,-0.31695 -2.50035,-0.31695 -2.14905,0 -2.51304,0.0315 -2.59067,0.22401 -0.0497,0.12321 -0.0632,0.26583 -0.03,0.31694 0.0332,0.0511 1.199,0.0929 2.59067,0.0929 2.52537,0 2.53032,-5.6e-4 2.53032,-0.31694 z"
       id="path138735-0-4" />
    <path
       style="fill:#002bff;fill-opacity:1;stroke-width:0.144393"
       d="m 64.416824,104.00892 v -0.35216 h -2.59019 -2.59019 v 0.35216 0.35216 h 2.59019 2.59019 z"
       id="path138715-0-8" />
    <path
       style="fill:#002bff;fill-opacity:1;stroke-width:0.144393"
       d="m 64.417154,105.48171 c 0,-0.26286 -0.118359,-0.27545 -2.59019,-0.27545 -2.587389,0 -2.59019,2.8e-4 -2.59037,0.31694 l -1.49e-4,0.31695 2.59037,-0.0415 c 2.45712,-0.0394 2.590339,-0.0557 2.590339,-0.31694 z"
       id="path138711-6-0" />
    <path
       id="path138701-8-7"
       style="fill:#002bff;fill-opacity:1;stroke-width:0.144393"
       d="m 67.132081,100.25788 c -0.702354,0.005 -0.850404,0.0732 -1.113627,0.27182 -0.642679,0.48496 -0.921717,1.59491 -0.904337,3.59771 0.0147,1.69668 0.192327,2.49644 0.727087,3.27319 0.21202,0.30795 0.296749,0.31914 2.399337,0.31781 1.979838,-0.001 2.249011,-0.0321 2.93212,-0.33486 1.496499,-0.66318 2.285551,-1.86014 2.278931,-3.45716 -0.006,-1.36725 -0.797383,-2.56278 -2.125452,-3.21065 -0.685769,-0.33453 -0.954573,-0.37561 -2.829801,-0.43098 -0.611074,-0.018 -1.045006,-0.029 -1.364258,-0.0269 z m -0.592212,0.98134 h 1.859318 c 1.595509,0 1.951955,0.0424 2.511475,0.30024 1.728468,0.79633 2.160855,2.91314 0.879016,4.30258 -0.778869,0.84424 -1.389064,1.02532 -3.466972,1.02888 l -1.807641,0.003 -0.231511,-0.73897 c -0.369822,-1.18083 -0.318405,-3.44899 0.10232,-4.50774 z" />
    <use
       x="0"
       y="0"
       xlink:href="#path138715-0-8"
       id="use1"
       transform="translate(3.8913429e-7,-1.5368167)"
       style="fill:#002bff;fill-opacity:1" />
    <use
       x="0"
       y="0"
       xlink:href="#path138715-0-8"
       id="use2"
       transform="translate(3.8913429e-7,1.4427264)"
       style="fill:#002bff;fill-opacity:1" />
    <use
       x="0"
       y="0"
       xlink:href="#use2"
       id="use3"
       transform="translate(-1.0865713e-8,1.5054534)"
       style="fill:#002bff;fill-opacity:1" />
    <use
       x="0"
       y="0"
       xlink:href="#use1"
       id="use4"
       transform="translate(-1.0865713e-8,-1.4740895)"
       style="fill:#002bff;fill-opacity:1" />
  </g>
  <g
     inkscape:groupmode="layer"
     id="layer2"
     inkscape:label="Warstwa 2"
     transform="translate(0.015306,-0.02093429)" />
</svg>
